<svg width="250" height="250"
     xmlns="http://www.w3.org/2000/svg" version="1.1">
<style>path {fill-opacity:1; stroke:none;}</style>
<path d="M 68,237L 69,237L 70,236L 70,232L 68.6807,230.0713L 67.7168,227.8789L 67.2153,225.2085L 67.042,222.0957L 67.0249,218.7036L 67.1094,215.1563L 67.3438,211.6875L 67.7539,208.5078L 68,207L 68,206L 68,204L 68,202L 68.002,198.0039L 68.0215,194.043L 68.1094,190.2188L 68.3438,186.6875L 68.5488,185.0977L 69,182.1113L 69.5352,179.4102L 70.2012,176.748L 71,174L 71.1611,172.5703L 71.5439,169.752L 72.0557,167.0137L 72.6729,164.332L 73,163L 73.2461,161.7324L 73.7783,159.1758L 74.4121,156.5449L 75.165,153.8086L 76,151L 76.2461,149.7324L 76.5122,148.4541L 77.0957,145.8594L 77.7944,143.167L 78.6147,140.3594L 79.5269,137.4639L 80,136L 80,133L 78.5703,132.8389L 75.752,132.4561L 74.3828,132.2002L 71.7012,131.6125L 69.3506,130.744L 68.5007,129.6211L 68.1709,127.5996L 69.7434,126.0788L 72,125L 74,124L 76,123L 76.6753,120.3506L 77.3848,117.7695L 78.1616,115.3232L 79,113L 79.5352,110.875L 80.2012,108.5469L 81,106L 81.7744,103.5488L 82.6128,101.2256L 83.5269,99.0537L 84,98L 84.5,96.5879L 85.5,93.8418L 86.5,91.2539L 87,90L 87.3872,88.7744L 88.1938,86.3877L 89.073,84.146L 90.019,82.0381L 91,80L 91.7744,77.3125L 92.6128,74.708L 93.5269,72.2178L 94,71L 94,69L 92.6712,68.3945L 90.3209,67.0313L 88.8897,65.3301L 89.4032,62.5176L 90.1881,61.7178L 92.0089,60.3218L 94.1668,59.3628L 96.453,58.8984L 97.6308,58.8984L 98.9082,58.9785L 101.624,59.2637L 104.5313,59.7344L 106,60L 110,60L 110.2739,58.7939L 110.8872,56.4072L 111.6606,54.0459L 112.6235,51.6709L 113.7578,49.3086L 115,47L 115.4805,45.7461L 115.9727,44.5352L 116.9727,42.207L 117.4805,41.1289L 118.4932,39.0283L 119.499,37.0029L 120,36L 120.502,34.7744L 121.5195,32.3877L 122.5898,30.146L 123.7539,28.0381L 125,26L 126,24L 127.0645,21.5811L 128.2266,19.2666L 129.5488,17.0889L 131,15L 131.5327,14.0117L 132.6577,12.0874L 134.0244,10.4219L 134.9169,9.9209L 136.8158,9.4327L 138.7004,9.9554L 139.4706,10.621L 140.1684,11.4178L 141.484,13.2484L 142.7289,15.4963L 143.3645,16.7482L 144.5,19L 145,20L 146.0078,22.0234L 147.0313,24.1563L 148.0391,26.4922L 149,29L 150,31.1758L 151,33.5078L 151.5,34.7539L 152.4824,37.2266L 153.4102,39.7266L 153.8281,41.0264L 154.6025,43.6309L 155.2451,46.2021L 155.7656,48.7344L 156,50L 156.2656,51.2344L 156.7656,53.7344L 157,55L 157.8369,57.8145L 158.5957,60.5898L 159.2197,63.3418L 159.6758,66.1367L 160,69L 160.2256,70.5488L 160.6123,73.7441L 160.8545,77.0723L 160.9678,80.377L 161,82L 163.8594,82.3223L 166.6367,82.752L 168,83L 169.791,83.0068L 171.3706,83.0476L 174.1902,83.2617L 176.4412,83.8542L 177.5305,84.8685L 178.4609,86.9504L 177.4746,88.9464L 176.4701,89.7718L 174.3038,91.2535L 172.071,92.4549L 171,93L 171,96L 171.2461,97.4453L 171.6582,100.3945L 171.9121,103.4492L 172,105L 172.2656,106.4688L 172.7656,109.4688L 173,111L 173.2656,112.2344L 173.7656,114.7344L 174.248,117.5039L 174.6777,120.6445L 175,124L 175.248,125.3633L 175.6777,128.1406L 176,131L 177,134L 178,135L 179.0869,135.5371L 180.1221,136.1353L 181.1143,136.8088L 182.0703,137.5583L 183.9061,139.1917L 184.7162,140.1208L 185.4127,141.0837L 185.9354,142.1859L 186.4857,144.4737L 185.8891,146.5328L 184.1134,147.8789L 181.525,148.5801L 178.5441,148.9043L 177,149L 176.6875,152.125L 178.4365,150.252L 180.6992,148.918L 183.499,148.2168L 185,148L 188,147L 188,146L 187,143L 186,142L 185,142L 184.0366,142.7109L 183.012,143.311L 180.8174,144.2683L 178.2792,144.7703L 175.3506,144.9521L 172.1832,144.9944L 169,145L 169,151L 169.2461,152.5078L 169.6563,155.6875L 169.8906,159.2188L 169.9785,162.918L 169.998,166.3789L 170,168L 170.2461,169.5078L 170.6563,172.6875L 170.8906,176.2188L 170.9785,180.043L 170.998,184.0039L 171,188L 171,191L 171.2461,192.5078L 171.6563,195.6875L 171.8906,199.2188L 171.9785,203.043L 171.998,207.0039L 172,209L 172.2461,210.4453L 172.6582,213.3945L 172.9121,216.4492L 173,218L 173.2656,219.4688L 173.7656,222.4688L 174,224L 175,227L 176,227L 177,226L 177,224.5L 177.001,222.752L 177.019,220.9131L 177.1382,219.2764L 177.9854,221.0332L 178,223L 179.4785,223.0918L 180.9229,223.2383L 182.3091,223.4595L 183.6133,223.7766L 186.0022,224.6396L 187.824,225.9939L 188.8411,227.8213L 188.9634,229.9675L 188.3276,232.1956L 187.1084,234.1951L 185.3652,235.6836L 184.2734,236.1602L 183.1001,236.5732L 180.6313,237.3271L 178,238L 175.6855,239.293L 173.2852,240.3809L 170.8027,241.1836L 168.2734,241.7568L 167,242L 165.8828,242.332L 163.6338,242.8423L 161.377,242.96L 159.1611,242.6274L 157,242L 154.1387,241.6104L 151.3604,241.0601L 148.7363,240.2583L 146.2998,239.2075L 144,238L 142,237L 137,237L 135.5313,237.2656L 132.5313,237.7656L 131,238L 129.5234,238.4805L 126.5742,239.3887L 123.5664,240.1348L 120.3711,240.6348L 117.0039,240.8887L 113.6484,240.9805L 112,241L 109.3535,241.3438L 106.7539,241.4307L 104.2363,241.1924L 103,241L 84,241L 81.7773,242.7578L 80.6011,243.4482L 79.3931,243.9629L 78.171,244.2856L 76.9526,244.4165L 75.7518,244.3666L 73.4041,243.9395L 71.1923,242.9357L 69.1644,241.5125L 67.3563,239.8128L 65.7556,237.9549L 65,237L 64,236L 63,235L 62.2412,234.2463L 60.8477,232.6401L 60.2129,231.7876L 61,233L 63,234.4844L 65,236L 67,236.6641ZM 0,0L 0,250L 250,250L 250,0ZM 62.7031,209.4063L 62,209ZM 68.5469,151.5938L 68.3438,152.6875ZM 71.375,136.625L 71,135L 70.5,134ZM 63.5,195L 63.875,196.75ZM 106.666,43L 108,41L 106.5361,42.5283L 105,44L 106,44ZM 135,4L 133,5L 134.254,4.6234L 136.7578,3.8887ZM 156.375,33.25L 155.5,31ZM 167.4316,71.6777L 166.3887,69.0879L 165.9141,67.8203L 166.2803,69.2197L 167,72L 168,73ZM 178.6909,193.4756L 178.1699,191.2148ZM 177.583,169.1035L 178,169ZM 119.332,21L 120,20L 120.8462,18.688L 122.6328,16L 121,18L 119.668,20.001L 119,21L 118,23Z" style="fill:rgb(254,254,254);"/>
<path d="M 63,229L 62.7344,227.5313L 62.2344,224.5313L 62,223L 61,223L 59.2402,224.8184L 57.1484,226.335L 56,227L 55,228L 55,230L 55.9121,230.5879L 57.6582,231.8418L 58.4521,232.5479L 60.123,234.127L 61,235L 62,235L 62.2188,233.6836L 62.7188,231.1836L 63,230Z" style="fill:rgb(226,228,225);"/>
<path d="M 63,215L 63,201L 62,201L 62,215Z" style="fill:rgb(226,228,225);"/>
<path d="M 64,201L 64,189L 63,189L 63,201Z" style="fill:rgb(226,228,225);"/>
<path d="M 68.713,155.166L 69.3828,152.5977L 70.1611,149.8184L 71,147L 71,142L 70,142L 69.2256,144.7949L 68.3872,147.6357L 67.4731,150.5361L 67,152L 66.7656,153.2656L 66.2656,155.7656L 66,157L 66,159L 67,159L 68,158L 68.8976,154.4785Z" style="fill:rgb(226,228,225);"/>
<path d="M 73,135L 72,134L 69,134L 69,135L 69.4961,136.3633L 70.3555,139.1406L 71,142L 72,142L 72.2344,140.4688L 72.7344,137.4688L 73,136Z" style="fill:rgb(226,228,225);"/>
<path d="M 111,35L 110,35L 109,36L 108.4297,37.248L 107.248,39.6777L 106,42L 105,44L 105,45L 107,45L 107.666,44L 109,42L 110,40L 111,37Z" style="fill:rgb(226,228,225);"/>
<path d="M 127,10L 126,10L 125,11L 124,12L 123.2314,13L 121.6509,15L 120,17L 118.668,19.001L 118,20L 117,22L 117,24L 118,24L 119,23L 121,21L 121.7686,19.7686L 123.3491,17.3491L 125,15L 125.666,14L 127,12Z" style="fill:rgb(226,228,225);"/>
<path d="M 140,4L 138,3L 134,3L 132,4L 131,5L 130,6L 129,7L 128,8L 128,9L 130,9L 132.1797,7.4971L 134.5469,6.2832L 137.1797,5.4893L 140,5Z" style="fill:rgb(226,228,225);"/>
<path d="M 158,38L 158,36L 157.666,34.668L 157,32L 156,29L 155,27L 154,27L 154,30L 154.4297,31.4141L 155.248,34.2227L 156,37L 157,38Z" style="fill:rgb(226,228,225);"/>
<path d="M 168,72L 167.3506,69.3379L 166.7695,66.6406L 166.3232,63.8613L 166,61L 165,58L 164,58L 164,62L 164.248,63.3633L 164.6777,66.1406L 165,69L 165.334,70.332L 166,73L 168,73Z" style="fill:rgb(226,228,225);"/>
<path d="M 186.4326,143.1777L 185.0537,145.2695L 183.0845,146.7334L 180.5024,147.5381L 177.5391,147.8965L 176,148L 176,158L 177,158L 177.2188,156.4922L 177.9414,153.6602L 179.3906,151.3906L 181.6602,149.9414L 184.4922,149.2188L 186,149L 189,148L 189,144L 188,142L 187,142Z" style="fill:rgb(226,228,225);"/>
<path d="M 178,181L 178,159L 177,159L 177,181Z" style="fill:rgb(226,228,225);"/>
<path d="M 178,223L 178,205L 177,205L 177,223Z" style="fill:rgb(226,228,225);"/>
<path d="M 179,205L 179,181L 178,181L 178,205Z" style="fill:rgb(226,228,225);"/>
<path d="M 86.4141,187.0781L 85.1582,189.1758L 83.7441,191.0977L 83,192L 82.3018,193.1074L 80.7646,195.1738L 79,197L 77.9434,199.3164L 76.6104,201.3164L 75,203L 74,205L 73.5703,208.3164L 72.9043,211.3164L 72,214L 71,217L 71,224L 72,226L 72.7656,226.7344L 74.2656,228.2344L 75,229L 76.2734,229.2871L 78.793,229.9824L 81.1934,230.9941L 83.335,232.3916L 85.1611,234.0928L 86,235L 87,236L 90.957,236.0215L 94.7813,236.1094L 98.3125,236.3438L 101.4922,236.7539L 103,237L 115,237L 116.5078,236.7539L 119.6836,236.3418L 123.1758,236.0879L 125,236L 126.5039,235.752L 129.6445,235.3223L 133,235L 135.6875,234.0977L 138.6953,233.4531L 142.0039,233.1309L 145.3516,233.0215L 147,233L 149.1953,231.9277L 151.3203,231.4727L 153.2578,231.9121L 155,233L 156,233L 158.4844,232.9531L 161,233L 162,233L 163.333,232.332L 166,231L 167,230L 167.4629,228.8926L 168.5781,226.8262L 170,225L 170,220L 167.9512,218.3623L 166.6426,216.022L 166.3213,214.511L 165.7539,211.4922L 165.3438,208.3438L 165.2266,206.6719L 165.146,205.0361L 165.0386,201.9385L 165.0059,199.2383L 165,198L 164.7539,196.4922L 164.3438,193.3125L 164.1094,189.7813L 164.0215,186.082L 164.002,182.6211L 164,181L 163.666,179.668L 163,177L 162.624,175.8389L 161.9868,173.4629L 161.8257,172.2319L 161.7767,171.0112L 162.0114,168.6776L 163.0497,166.7562L 164.9022,165.4739L 166,165L 166,156L 165.9531,153.5156L 166,151L 166,149L 165,147L 158,147L 156.7656,147.2656L 154.2656,147.7656L 153,148L 150,149L 148.9141,149.498L 146.668,150.4805L 144.252,151.4102L 141.6719,152.2461L 139,153L 136.9961,154L 134.9609,155L 132.8203,156L 130.4922,157L 128,158L 126,159L 124,160L 122,161L 120.8594,161.6777L 118.4961,162.9258L 116,164L 115,164.8281L 113,166.3975L 111,167.7744L 109,169L 108,169.7656L 106,171.2656L 105,172L 104,172.7656L 102,174.2656L 101,175L 100,175.9121L 98,177.6582L 96,179.2461L 95,180L 94,180.8926L 92,182.5488L 90,183.9023L 88,185L 87,186ZM 155.4844,201.2188L 155.625,200ZM 138.9063,230.2813L 137.8125,230.0625ZM 161.0999,200.9204L 161.0667,202.2207L 159.6362,202.6406L 159.5676,201.4395L 160.9004,199.5117Z" style="fill:rgb(55,126,49);"/>
<path d="M 73,198L 76,198L 77,197L 77,195L 76.666,193.668L 76,191L 73,191Z" style="fill:rgb(55,126,49);"/>
<path d="M 79,189L 80,187L 80,186L 78,186L 77,187L 76,190L 76,191L 78,191Z" style="fill:rgb(55,126,49);"/>
<path d="M 111,160L 111,157L 110,155L 108,154L 107,154L 106.1855,155L 105.3524,156L 104.4966,157L 103.6167,158L 102.7137,159L 101.79,160L 100.8484,161L 99.8922,162L 98.9245,163L 96.971,164.998L 94.9906,166.9785L 92.9975,168.8906L 90.9995,170.6563L 88.9999,172.2461L 88,173L 87.2637,173.9883L 85.7871,175.9102L 84.2949,177.6758L 82.7715,179.2539L 82,180L 81,182L 80,184L 80,186L 81,186L 82,185L 83,184L 83.8036,183.002L 85.4545,181.0215L 87.2101,179.1094L 89.0763,177.3438L 91.0171,175.7539L 92,175L 93,174L 93.7739,173.0879L 95.3813,171.3418L 97.1074,169.7539L 98,169L 98.9385,168.0654L 100.7129,166.3574L 102.3872,164.9771L 104.1396,163.8936L 106,163L 106.9531,162.2969L 108.9238,161.0332Z" style="fill:rgb(55,126,49);"/>
<path d="M 104,67L 102.5156,69.5156L 101,72L 101,73L 103,73L 104,72L 105,71L 106,70L 107,69L 107,68L 106,67Z" style="fill:rgb(55,126,49);"/>
<path d="M 185,228L 183.3789,227.9785L 180.1211,227.8672L 176.9844,227.5254L 174.2578,226.793L 172.0156,225.6563L 171,225L 170,225L 169,228L 169,229L 169,231L 169,232L 171.8594,232.3223L 174.6367,232.752L 176,233L 183,233L 183.9531,230.9531L 185,229Z" style="fill:rgb(55,126,49);"/>
<path d="M 77,194L 76.334,195.334L 75,198L 74,200L 73,202L 73,207L 74,207L 74.5,206L 75.001,205L 76.0117,203L 77.0654,201L 78.2266,199L 79.5488,197L 81,195L 82,193L 82,189L 81,189L 80.2314,190L 78.6509,192Z" style="fill:rgb(6,26,1);"/>
<path d="M 90,186L 91,185L 92,184L 93,183L 94.1553,181L 95.4888,179L 97,177L 97,174L 95,174L 94,175L 93,176L 92,177L 91.2656,177.7656L 89.7656,179.2656L 89,180L 88,181L 86.4192,182.8926L 84.7366,184.6563L 82.9302,186.2461L 82,187L 82,191L 84,191L 85,190L 86.5776,188.4297L 88.2444,187.0957Z" style="fill:rgb(6,26,1);"/>
<path d="M 111,117.998L 110,118.9883L 108,120.9336L 106,122.7617L 104,124.3857L 103,125.0796L 101.9756,125.7327L 100.9164,126.3317L 98.7362,127.3508L 96.4771,127.8508L 94.2388,127.5767L 92.0859,126.5239L 90,125L 87,125L 87,127L 88,129L 89,130L 90,130.7739L 92,132.3813L 94,134.1074L 95,135L 96.8926,136.5488L 98.6563,138.2256L 100.2461,140.0537L 101,141L 102,142L 105,142L 105,140L 104.9298,138.6334L 104.9331,135.9701L 105.3132,133.4813L 106.1761,131.1925L 107.4924,129.0591L 109.1262,127.0112L 110,126L 110.6128,125L 111.9141,123L 113.3872,121L 115,119L 115,115L 114,115L 112,116.999Z" style="fill:rgb(6,26,1);"/>
<path d="M 110,166L 110,163L 109,163L 107,164L 104.7852,165.8242L 102.4521,167.4922L 100,169L 98.5156,171L 97,173L 97,176L 98,176L 99,175.2344L 101,173.7344L 102,173L 103,172.0879L 105,170.3418L 107,168.7539L 108,168L 109,167Z" style="fill:rgb(6,26,1);"/>
<path d="M 104,70L 104,67L 99,67L 99,72L 100,72L 101.333,71.332Z" style="fill:rgb(6,26,1);"/>
<path d="M 115,154L 113.4688,151.5156L 112,149L 111.2539,148.0068L 109.8418,146.0132L 108.5879,144.0063L 108,143L 107,142L 104,142L 104,144L 105,146L 106.2061,148.0391L 107.2969,150.1797L 108.2139,152.5078L 109,155L 109.6094,157.2148L 109.9443,159.5479L 109.9722,160.7739L 110,163.5L 110,165L 111,165L 113,164L 115,163L 116,162L 117,161L 117,158L 116.332,156.668Z" style="fill:rgb(6,26,1);"/>
<path d="M 119,70L 123,70L 123,69L 122,68L 120,66L 119,65L 116,64L 115,64L 115,66L 116,67L 117,68L 118,69Z" style="fill:rgb(6,26,1);"/>
<path d="M 118,110L 117,111L 116.334,112L 115,114L 115,116L 116,117L 117,117L 119,115L 119.666,114L 121,112L 122,110L 122,107L 121,107L 120.2656,107.7656L 118.7656,109.2656Z" style="fill:rgb(6,26,1);"/>
<path d="M 124,152L 122,153.334L 121,154L 119,155.334L 118,156L 117,157L 117,160L 118,160L 121,159L 123,157.666L 124,157L 126,155.666L 127,155L 128,153L 128,151L 127,151Z" style="fill:rgb(6,26,1);"/>
<path d="M 127,76L 127,73L 126,72L 125,71L 124,70L 121,70L 121,72L 122,73L 123,74L 124,75L 125,76Z" style="fill:rgb(6,26,1);"/>
<path d="M 126,104L 125,104L 124,105L 123,106L 122,107L 122,109L 124,109L 125,108L 126,107Z" style="fill:rgb(6,26,1);"/>
<path d="M 143,91L 141.9231,90.917L 139.8496,90.5039L 138.0513,89.4941L 136.6248,87.9072L 136,87L 135.2744,86L 134.5811,85L 133.2668,83L 132.0923,81L 131.0222,79L 130,77L 129,76L 127,76L 127,80L 127.7441,81.0723L 129.1348,83.3057L 130.2773,85.7603L 130.6836,87.1243L 130.9893,88.548L 131.1824,90.0095L 131.3218,92.951L 130.9377,95.8074L 130.0112,98.3561L 128.615,100.4722L 126.9075,102.208L 126,103L 126,107L 127,107L 127.9297,106.1406L 129.8862,104.5039L 132,103L 132.7461,102.2266L 134.3242,100.6953L 136.0898,99.1953L 138.0117,97.7266L 139,97L 140,96.2344L 142,94.7344L 143,94Z" style="fill:rgb(6,26,1);"/>
<path d="M 137,149L 137,147L 132,147L 130,149L 129,150L 128,151L 128,153L 130,153L 132,152L 134,151L 136,149.666Z" style="fill:rgb(6,26,1);"/>
<path d="M 151,141L 147,141L 144.5313,142.0313L 142,143L 140.667,143.668L 138,145L 137,146L 137,148L 140,148L 143,147L 144.1406,146.376L 146.5039,145.1611L 149,144L 151,143Z" style="fill:rgb(6,26,1);"/>
<path d="M 163,139L 164,138L 164,137L 157,137L 154.5313,138L 152,139L 151,140L 151,142L 155,142L 156.2539,141.5L 158.8418,140.5L 161.5879,139.5Z" style="fill:rgb(6,26,1);"/>
<path d="M 157,208L 157,196L 156,196L 155,197L 155,208Z" style="fill:rgb(6,26,1);"/>
<path d="M 164,187L 164.2656,188.4688L 164.7656,191.4688L 165,193L 166,193L 166,183L 165.7539,181.4922L 165.3438,178.3438L 165.1094,175L 165.0195,171.6484L 165,170L 164.752,168.4961L 164.3223,165.3555L 164,162L 163,162L 162,164L 162,166L 162.2461,167.5078L 162.6563,170.6875L 162.8906,174.1563L 162.9785,177.668L 163,181L 163.2656,182.4688L 163.7656,185.4688Z" style="fill:rgb(6,26,1);"/>
<path d="M 169,137L 171,136L 171,129L 170.752,127.4961L 170.3223,124.3555L 170,121L 169.7344,119.7656L 169.2344,117.2656L 168.7344,114.5313L 168.2344,111.5313L 168,110L 167.7539,108.5547L 167.3418,105.6055L 167.0879,102.5508L 167,101L 166.752,99.4961L 166.3223,96.3555L 166,93L 163,93L 163,99L 163.2656,100.2344L 163.7656,102.7344L 164.2461,105.4453L 164.6582,108.3945L 164.9121,111.4492L 165,113L 165.2461,114.4922L 165.6563,117.5625L 165.8926,120.7617L 166,124L 166.2266,125.4688L 166.5469,128.4688L 166.5469,131.5313L 166.2266,134.5313L 166,136L 166,137Z" style="fill:rgb(6,26,1);"/>
<path d="M 167,211L 167,196L 166,196L 166,211Z" style="fill:rgb(6,26,1);"/>
<path d="M 79.1758,235.125L 79.5078,232.4531L 80,230L 80,229L 77.5371,227.9258L 75.1611,226.6777L 74,226L 72,226L 72,228L 72.4102,229.4531L 73.1387,232.4336L 73.6563,235.6172L 74,239L 75,240L 78,240L 79,238Z" style="fill:rgb(57,163,49);"/>
<path d="M 105,149L 104,148L 103,147L 102,146L 101,145L 100,144L 99,143L 98,142L 97,141.2314L 95,139.6509L 93,138L 91,137L 89,136L 87,135L 85,135L 84.5313,136.2656L 83.5313,138.7656L 83,140L 82,143L 81.334,145.668L 81,147L 80.3271,149.6816L 79.6172,152.4023L 78.8389,155.1816L 78,158L 77.7656,159.2656L 77.2656,161.7656L 77,163L 76.7656,164.2656L 76.2656,166.7656L 76,168L 75.7656,169.2656L 75.2656,171.7656L 75,173L 74.5098,175.5313L 73.9551,178.082L 73.3281,180.6836L 73,182L 73,191L 76,191L 77,190L 77.7344,188.9688L 79.2344,186.9688L 80,186L 81.2256,184L 82.6025,182L 84.1719,180L 85,179L 85.8036,178L 86.6291,177L 87.4807,176L 88.3593,175L 89.2632,174L 90.1892,173L 91.1338,172L 92.0931,171L 93.0639,170L 94.0433,169L 95.029,168L 96.0192,167L 97.0125,166L 98.0081,165L 100.0023,163L 102.0005,161L 104.0001,159L 106,157L 107,156L 107,155L 106.5034,154.0542L 105.6748,152.1055L 105.1714,150.0513Z" style="fill:rgb(57,163,49);"/>
<path d="M 105,121L 106,120L 107,119L 107.7739,118.0879L 109.3813,116.3418L 111.1074,114.7539L 112,114L 114,112.0654L 116,110.2383L 118,108.6143L 120,107.2266L 122,106L 123.5078,104.0596L 125.1846,102.3867L 127,101L 127.666,99.666L 129,97L 129,93L 129,92L 129,88L 128.7344,86.7656L 128.2344,84.2656L 128,83L 126.5479,81L 125.2148,79L 124,77L 123,76L 122,75L 121,74.334L 119,73L 118,72.334L 116,71L 114,70L 112.7344,69.5L 110.2344,68.5L 109,68L 107,68L 104.7852,69.8242L 102.4521,71.4922L 100,73L 99.334,74L 98,76L 97,78L 96.5,79.2656L 95.5,81.7656L 95,83L 94.5,84.4121L 93.5,87.1582L 92.5,89.7461L 92,91L 91.624,92.248L 90.8389,94.6777L 90,97L 89,100L 88.8379,101.4316L 88.4458,104.2588L 87.8877,107.0156L 87.1211,109.7168L 86.1377,112.375L 85,115L 85,116L 86,118L 87,120L 88,121L 90.001,122.332L 91,123L 92.2656,123.2344L 94.7656,123.7344L 96,124L 97,124L 98.0537,123.4883L 100.2637,122.4922L 102.6162,121.6445Z" style="fill:rgb(57,163,49);"/>
<path d="M 131,149.666L 132,149L 132.584,147.9258L 133.9541,145.9463L 134.8706,145.1396L 136.8521,143.6978L 137.9053,143.1145L 139.9792,142.0156L 142,141L 144,139.4902L 146,138.0449L 148,136.6719L 149,136L 150,135L 151,134L 152,133L 153,132L 154,131L 155,130L 155.7686,129L 157.3491,127L 159,125L 160,123L 161,120.5479L 162,118.2148L 163,116L 163,112L 163,111L 163,110L 162.7744,108.5605L 162.3877,105.584L 162.146,102.3447L 162.0381,98.7832L 162,95L 161,94L 160,93L 154,93L 151,94L 148.8242,95L 146.4922,96L 144,97L 142,98L 140,99L 139,100L 138,101L 136.3438,102.5488L 134.4307,103.7949L 132.1924,104.6563L 131,105L 129,106L 127,107.334L 126,108L 124.4961,110.0117L 122.8594,112.0469L 121.0117,114.0586L 119,116L 117.3928,118L 115.6992,120L 113.8889,122L 112,124L 110.4629,126L 108.8389,128L 108,129L 106.668,131.001L 106,132L 105.5313,134L 105,136L 105,142L 106.4521,143.7236L 107.7852,145.7227L 109,148L 111.1074,149.0742L 113.0664,150.3223L 114,151L 115,151.666L 117,153L 118,153L 119.4453,152.7539L 122.3945,152.3418L 125.4492,152.0879L 127,152L 129,151Z" style="fill:rgb(57,163,49);"/>
<path d="M 155,63L 153.8613,60.8994L 152.9336,58.6631L 152.6025,57.4558L 152.3008,56.1846L 151.7534,53.5114L 151.3418,50.6055L 151.0879,47.5508L 151,46L 150.666,44.668L 150,42L 149,39L 148,36L 147.5,34.9102L 146.5,32.6367L 145.5,30.1367L 144.5,27.4102L 144,26L 143.376,24.8594L 142.1611,22.4961L 141,20L 139.666,18L 139,17L 138,16L 135,16L 133.5156,18L 132,20L 131,22L 130,24L 129,26L 128,28L 127,30L 126,32L 125,34L 124,36L 123.5,37.2256L 123,38.4189L 122,40.7332L 121,42.9077L 120,44.9778L 119,47L 118,50L 117.7656,51.2656L 117.2656,53.7656L 117,55L 117,59L 117.9805,60L 119.8906,62L 121.6563,64L 123.2461,66L 124,67L 125,68L 126,69L 127,70L 128,71L 129,72L 130,73L 131,74L 132,75L 133,75.666L 135,77L 137,78L 138,78L 139.2344,77.7344L 141.7344,77.2344L 143,77L 145.4688,76L 148,75L 150,73.666L 151,73L 152,72L 153,71L 154,69L 154.2344,67.7344L 154.7344,65.2344L 155,64Z" style="fill:rgb(57,163,49);"/>
<path d="M 171,237L 172,236L 172,235L 171,233L 168.918,232.3555L 166.9492,231.4961L 166,231L 164,231L 163,233L 163,236L 164,237Z" style="fill:rgb(57,163,49);"/>
<path d="M 70,127L 70,131L 72,131L 73.2383,130.7466L 74.4702,130.5415L 75.6934,130.4829L 77.9409,130.7947L 79.4576,132.8098L 80,136L 83,136L 85,135L 85,128L 82.332,126.668L 81,126L 78,125L 75,124L 74,124L 73,124.7656L 71,126.2656Z" style="fill:rgb(171,174,96);"/>
<path d="M 94,61L 94,62L 95,62.666L 97,64L 99.668,64.666L 101,65L 113,65L 113,64L 112,62L 111,61L 110,60L 109,60L 106.7734,61.0449L 104.3867,61.6133L 101.7734,61.5293L 99,61Z" style="fill:rgb(171,174,96);"/>
<path d="M 162,82L 160,82L 159,82.4629L 157,83.3018L 155,84L 154,85L 154,87L 157.0615,87.2305L 159.9707,87.6494L 162.5918,88.3818L 164.9082,89.418L 166,90L 172,90L 173.4844,87.4844L 175,85L 175,84L 171.3694,83.9143L 168.1966,83.6981L 165.5363,83.2201L 164.3106,82.9007Z" style="fill:rgb(171,174,96);"/>
<path d="M 164,140L 164,146L 167,147L 169,147L 170,145L 171.332,142.3301L 172,141L 172,140Z" style="fill:rgb(171,174,96);"/>
<path d="M 172,137L 172,139L 173,140L 174.248,140.376L 176.6777,141.1611L 179,142L 181,142L 182,141L 182,140L 180.666,138L 180,137L 178.666,135L 178,134L 177,134L 176,134.624L 174,135.8389Z" style="fill:rgb(171,174,96);"/>
<path d="M 79,233L 77,231L 76,231L 76,235L 78,235L 79,234Z" style="fill:rgb(28,64,17);"/>
<path d="M 103,70L 101,70L 99,70L 98,70L 97,71L 97,73L 98,75L 100,75L 101.4844,73L 103,71Z" style="fill:rgb(28,64,17);"/>
<path d="M 150,234L 150,232L 148,231L 145,231L 145,232L 147,233L 149,234Z" style="fill:rgb(28,64,17);"/>
<path d="M 156,236L 158,235L 158,234L 157,233L 155,233L 154,234L 153,235L 153,236Z" style="fill:rgb(28,64,17);"/>
<path d="M 161,191L 160,191L 159,192L 159,213L 161,213Z" style="fill:rgb(28,64,17);"/>
<path d="M 163,177L 163,166L 162,166L 162,177Z" style="fill:rgb(28,64,17);"/>
<path d="M 168,98L 167,96L 166,96L 166,101L 166.2461,102.4453L 166.6582,105.3945L 166.9121,108.4492L 167,110L 167.2656,111.4688L 167.7656,114.4688L 168,116L 168.2656,117.2344L 168.7656,119.7344L 169.248,122.5039L 169.6777,125.6445L 170,129L 171,132L 172,132L 172,127L 171.752,125.4961L 171.3223,122.3555L 171,119L 170.7344,117.7656L 170.2344,115.2656L 170,114L 169.7344,112.7656L 169.2344,110.2656L 168.7539,107.5078L 168.3438,104.4375L 168.1074,101.2383Z" style="fill:rgb(28,64,17);"/>
<path d="M 166,221L 168,221L 168,214L 167,211L 166,211Z" style="fill:rgb(28,64,17);"/>
<path d="M 185,229L 182,229L 182,230L 183,232L 184,232L 185,231Z" style="fill:rgb(28,64,17);"/>
<path d="M 67,234L 65.668,233.668L 63,233L 62,233L 62,235L 62.7656,236L 64.2656,238L 65,239L 66,240L 67,241L 68,242L 69,243L 70,244L 71,244.666L 73,246L 75,247L 77,247L 80,246L 81,245L 82,244L 83,243L 83,242L 81,242L 79.8993,242.2533L 78.7905,242.4304L 76.5656,242.5892L 75.4634,242.4483L 74.3908,242.186L 72.336,241.4245L 70.5208,240.1967L 69.0392,238.5106L 67.9049,236.3966Z" style="fill:rgb(179,199,157);"/>
<path d="M 74,125L 74,124L 72,124L 70.668,124.334L 68,125L 66,126L 65,127L 64,129L 64,131L 65,133L 67,133L 69.4297,132.8594L 71.8184,132.9131L 73,133L 78,133L 78,132L 77,131.334L 75.0342,129.9082L 73.623,128.1621L 73.5889,126.0879Z" style="fill:rgb(179,199,157);"/>
<path d="M 100,240L 84,240L 84,241L 100,241Z" style="fill:rgb(179,199,157);"/>
<path d="M 85,63L 85,67L 88,68L 90,68L 90.0371,65.875L 90.5605,63.834L 92.1387,62.3398L 94.8047,61.4922L 98.2285,61.1328L 102.043,61.0234L 105.7539,61.002L 109,61L 109,60L 106.0938,59.0234L 103.4375,58.0469L 101,57L 99,57L 97.7656,57.2656L 95.2656,57.7656L 94,58L 91.5313,59L 89,60L 87,61Z" style="fill:rgb(179,199,157);"/>
<path d="M 101,176L 103,175L 104,174.2344L 106,172.7344L 107,172L 108,171L 108,168L 106,168L 105,168.9121L 103,170.6582L 101,172.2461L 100,173L 100,176Z" style="fill:rgb(179,199,157);"/>
<path d="M 112,241L 103,241L 103,242L 112,242Z" style="fill:rgb(179,199,157);"/>
<path d="M 126,75.2261L 124,73.6187L 122,71.8926L 121,71L 120,71L 120,75L 120.8281,75.7744L 122.3975,77.3872L 123.7744,79.1396L 125,81L 125.7656,82L 127.2656,84L 128,85L 129,85L 130,84L 130,81L 129.3223,80.1074L 128.0742,78.1738L 127,76Z" style="fill:rgb(179,199,157);"/>
<path d="M 149.8436,239.0072L 147.3319,238.3817L 146,238L 144,238L 144,239L 145,240L 147,241L 150,242L 151.4102,242.1719L 154.1387,242.6025L 156.6563,243.2256L 159,244L 165,244L 166.0879,243.5879L 168.3418,242.8418L 170.7539,242.2539L 172,242L 173.332,241.666L 176,241L 177,240L 178,239L 178,238L 176,238L 173.1855,238.8369L 171.7979,239.2163L 169.0303,239.9048L 166.2314,240.4146L 163.334,240.6631L 160.3711,240.5908L 157.4434,240.2354L 156,240L 152.7094,239.5282L 149.1777,238.8163Z" style="fill:rgb(179,199,157);"/>
<path d="M 160,62L 159.666,60.668L 159,58L 158,55L 157,55L 157,59L 157.2461,60.4922L 157.6563,63.5625L 157.8926,66.7617L 158,70L 158.248,71.5039L 158.6777,74.6445L 159,78L 160,79L 161,79L 161,69L 160.752,67.6367L 160.3223,64.8594Z" style="fill:rgb(179,199,157);"/>
<path d="M 162,82L 162,83L 163,84L 164.2656,84.2344L 166.7656,84.7344L 168,85L 169.5,85L 170.8325,85.0408L 172.0444,85.2015L 174.2097,85.8455L 175.7751,87.156L 176.6936,88.9917L 177,90L 181,90L 182,88L 182,86L 181,85L 180,84L 179,83L 177,82L 174,81L 169,81L 165.5625,81.5625Z" style="fill:rgb(179,199,157);"/>
<path d="M 180,146L 185,146L 185.665,144.998L 187,143L 187,141L 186,139L 185.2344,138.2656L 183.7344,136.7656L 183,136L 182,135L 178,135L 178,136L 178.4496,138.1074L 178.2319,139.5889L 177.2157,141.7988L 175.1868,142.9824L 172.4782,143.7188L 171,144L 171,145L 172.2656,145.2344L 174.7656,145.7344L 176,146L 177,146Z" style="fill:rgb(179,199,157);"/>
<path d="M 179.376,224.2046L 182.0132,224.7244L 184.3354,225.5635L 186.2334,226.8894L 187.7349,228.7568L 189,231L 191,231L 191,227L 190,225L 189,224L 187,223L 184,222L 181,222L 178,223L 178,224Z" style="fill:rgb(179,199,157);"/>
<path d="M 187,237L 188,236L 189,235L 189,232L 188,232L 186.9102,232.7256L 184.6367,234.1123L 182.1367,235.3545L 179.4102,236.4678L 178,237L 178,238L 182,238L 183.2344,237.7344L 185.7344,237.2344Z" style="fill:rgb(179,199,157);"/>
<path d="M 71,217L 70.7539,215.4922L 70.3438,212.3438L 70.1094,209L 70.0195,205.6484L 70,204L 69,204L 69,223L 70,223L 70.2344,221.7344L 70.7344,219.2344L 71,218Z" style="fill:rgb(108,133,92);"/>
<path d="M 70,204L 71,204L 71.666,201.332L 72,200L 72,194L 71,194L 70,195Z" style="fill:rgb(108,133,92);"/>
<path d="M 78,119L 77,119L 77,125L 78,126L 81,126L 81,124L 79.4688,121.5234Z" style="fill:rgb(108,133,92);"/>
<path d="M 82.7656,99.2656L 82.2656,101.7656L 82,103L 82,107L 83,107L 84,104L 85,101L 85,98L 83,98Z" style="fill:rgb(108,133,92);"/>
<path d="M 97,63L 91,63L 91,66L 92.334,68L 93,69L 94,70L 95,70L 95.9336,69.3438L 98.0664,68.2051L 100.7949,67.4512L 104,67L 104,66L 101.5117,65.0391L 99.1719,64.0313Z" style="fill:rgb(108,133,92);"/>
<path d="M 115,238L 102,238L 102,239L 115,239Z" style="fill:rgb(108,133,92);"/>
<path d="M 112,64L 113,65L 115,65L 116,64L 116,62L 115.666,60.668L 115,58L 113,58L 112,61Z" style="fill:rgb(108,133,92);"/>
<path d="M 133,237L 135.6172,236.0977L 138.4336,235.4512L 141.4531,235.1074L 143,235L 143,234L 133,234L 131.668,234.334L 129,235L 129,237Z" style="fill:rgb(108,133,92);"/>
<path d="M 167,146L 164,146L 164,147L 164.2461,148.4453L 164.6582,151.3945L 164.9121,154.4492L 165,156L 165.4102,157.4531L 166.1387,160.4336L 166.6563,163.6172L 167,167L 168,167L 168,152L 167.7344,150.5313L 167.2344,147.5313Z" style="fill:rgb(108,133,92);"/>
<path d="M 166,90L 166,92L 167.5469,93.7285L 168.7734,95.7734L 169.5469,98.2441L 170,101L 171,101L 171,92L 170,90Z" style="fill:rgb(108,133,92);"/>
<path d="M 174,218L 173.0742,215.3555L 172.6982,213.9258L 172.3613,212.4736L 171.7661,209.5029L 171.3438,206.3125L 171.1094,202.7813L 171.0215,198.957L 171,195L 170.752,193.6367L 170.3223,190.8594L 170,188L 169.7539,186.4922L 169.3438,183.3125L 169.1094,179.7813L 169.0215,175.957L 169.002,171.9961L 169,168.5L 169,167L 168,167L 168,189L 168.248,190.3633L 168.6777,193.1406L 169,196L 169.2461,197.5078L 169.6563,200.6875L 169.8906,204.2188L 169.9785,208.043L 170,212L 170.2461,213.4922L 170.6563,216.5625L 170.8926,219.7617L 171,223L 172.334,225L 173,226L 174,227L 175,227L 175,224L 174.7344,222.5313L 174.2344,219.5313Z" style="fill:rgb(108,133,92);"/>
<path d="M 175,136L 176,133L 176,132L 174,132L 173.334,133L 172,135L 172,137L 174,137Z" style="fill:rgb(108,133,92);"/>
<path d="M 187,229L 187,227L 186,226L 185,225L 177,225L 176,226L 176,227L 177.6563,227.1719L 180.7949,227.6025L 183.5488,228.2256L 186,229Z" style="fill:rgb(108,133,92);"/>
<path d="M 73.5703,229.5859L 73.1631,228.1816L 72.4023,225.375L 71.7607,222.5176L 71.2363,219.5313L 71,218L 70,218L 70,229L 70.2656,230.4688L 70.7656,233.4688L 71,235L 72,237L 73,238L 74,238L 74,231Z" style="fill:rgb(80,159,66);"/>
<path d="M 75,178L 75.2344,176.7344L 75.7344,174.2344L 76,173L 76.2344,171.7344L 76.7344,169.2344L 77,168L 77.2344,166.7344L 77.7344,164.2344L 78,163L 78.5352,160.4102L 79.2012,157.748L 80,155L 80.666,152.332L 81,151L 81.6792,148.3438L 82.4209,145.752L 83.3159,143.3154L 84.4072,141.0742L 85,140L 85,137L 83,137L 82,139L 81,141L 80,144L 79.4648,146.5898L 78.7988,149.252L 78,152L 77.334,154.668L 77,156L 76.7656,157.2656L 76.2656,159.7656L 76,161L 75.7656,162.2656L 75.2656,164.7656L 75,166L 74.7656,167.2656L 74.2656,169.7656L 74,171L 73.4648,173.5898L 72.7988,176.252L 72,179L 71.7656,180.5313L 71.2656,183.5313L 71,185L 71,194L 72,196L 73,196L 73.0195,194.0391L 73.1094,190.2188L 73.3447,186.6895L 73.7715,183.543L 74.0537,182.1074L 74.668,179.3359Z" style="fill:rgb(80,159,66);"/>
<path d="M 79,236L 78,238L 78,239L 80,239L 82,238L 83,237L 83,236Z" style="fill:rgb(80,159,66);"/>
<path d="M 83.334,116.668L 83,118L 83,119L 84,120L 85,121L 87,122L 91,122L 91,121L 89.3811,119.246L 88.1794,117.2681L 87.9216,116.1123L 87.7368,113.6624L 88.0767,111.0218L 88.6718,108.3377L 89,107L 89,103L 88,103L 87,105L 86,107L 85.624,108.3887L 84.8389,111.1816L 84,114Z" style="fill:rgb(80,159,66);"/>
<path d="M 126,236L 115,236L 113.5313,236.2266L 110.5313,236.5469L 107.4688,236.5469L 104.4688,236.2266L 103,236L 89,236L 89,237L 90.6484,237.0195L 94,237.1094L 97.3438,237.3438L 100.4922,237.7539L 102,238L 117,238L 118.4453,237.7539L 121.3945,237.3418L 124.4492,237.0879L 126,237Z" style="fill:rgb(80,159,66);"/>
<path d="M 122,109L 121,110L 120.2256,110.9648L 118.6128,112.8203L 116.8604,114.4922L 115,116L 114.2314,117.2314L 112.6509,119.6509L 111.8254,120.8254L 110.2656,123L 108.7656,125L 108,126L 106.5156,128L 105,130L 104,132L 103,134L 103,137L 104,140L 105,140L 106.332,137.332L 107,136L 107.2734,134.9766L 107.9531,132.9219L 108.9531,130.8906L 110.2734,128.9453L 111,128L 112.3018,126L 113.0137,125L 114.5301,123.0039L 115.3775,122.0215L 117.1451,120.1113L 119.0332,118.3652L 120.9955,116.8633L 122.9949,115.5898L 124,115L 124.9688,112.5L 126,110L 126,107L 125,107L 123,108.334Z" style="fill:rgb(80,159,66);"/>
<path d="M 107,152L 106,151L 105,150L 104,150L 104,154L 105,155L 107,155Z" style="fill:rgb(80,159,66);"/>
<path d="M 112,152L 113,153L 114,154L 119,154L 121,153L 121,152L 118.5703,151.2246L 116.3359,150.1592L 114.4092,148.6973L 112.7646,146.9346L 112,146L 110,146L 110,148L 110.668,149.333Z" style="fill:rgb(80,159,66);"/>
<path d="M 117,61L 117.2344,59.4688L 117.7344,56.4688L 117.9941,55.0898L 118.5488,52.4346L 118.8877,51.1763L 119.646,48.7075L 120.0923,47.5308L 121.0225,45.2456L 122.0034,43.0874L 123.0002,41.0217L 124,39L 124.5,37.7744L 125,36.5811L 126,34.2668L 126.5,33.1796L 127.5,31.0574L 128,30.0352L 128.5,29.0213L 129.001,28.0127L 130.0117,26.0023L 130.5386,25.0013L 131.0933,24.0046L 131.6882,23.0277L 132.3491,22.1106L 133.8392,20.5103L 135.6557,19.6133L 138.5195,20.4106L 139.3232,21.1954L 140.0573,22.1025L 141.4329,24.1242L 142.6829,26.5143L 143.8684,29.1801L 145,32L 145.5,33.0898L 146.498,35.3594L 147.4805,37.834L 147.9453,39.1641L 148.8262,41.8672L 149.5947,44.6309L 150.2178,47.4561L 150.6563,50.3945L 150.9121,53.4492L 151,55L 151.2656,56.2344L 151.7656,58.7344L 152,60L 153,63L 154,63L 154,57L 153.752,55.6367L 153.3223,52.8594L 153,50L 152.752,48.6367L 152.3223,45.8594L 152,43L 151,40L 150,37L 149,34L 148,31.5313L 147,29L 146,27L 145,24.9961L 144,22.9609L 143,20.8203L 142,18.4922L 141,16L 139.666,14L 139,13L 138,12L 136,12L 135,13L 134,14L 132.5156,16L 131,18L 130,20L 129,22L 128,24L 127,26L 126,28L 125,30L 124,32L 123,34L 122.5,35.2256L 122,36.4189L 121,38.7332L 120.5,39.8204L 119.5,41.9426L 118.5,43.9871L 117.5,45.9983L 117,47L 116,50L 115.7656,51.2656L 115.2656,53.7656L 115,55L 115,60L 116,61Z" style="fill:rgb(80,159,66);"/>
<path d="M 124,65L 123,64L 122,63L 121,62L 120,61L 119,60L 118,59L 117,59L 117,61L 118,62L 119,63L 120,64L 121,65L 122,66L 124,66Z" style="fill:rgb(80,159,66);"/>
<path d="M 129,238L 129,235L 125,235L 125,236L 126,238Z" style="fill:rgb(80,159,66);"/>
<path d="M 132,98L 131.7539,96.4922L 131.3438,93.3125L 131.1094,89.7813L 131.0195,85.9609L 131,84L 129,84L 128,85L 128,88L 127.9883,90.625L 127.877,93.1367L 127.5469,95.5703L 127,98L 127,103L 128,103L 129,102L 130,101L 131,100L 132,99Z" style="fill:rgb(80,159,66);"/>
<path d="M 137,144L 137,143L 135,143L 133,144L 132,145L 131,146L 131,147L 136,147Z" style="fill:rgb(80,159,66);"/>
<path d="M 138,101L 137,101L 135,102L 133,103L 132,104L 132,105L 136,105L 137,104L 138,103Z" style="fill:rgb(80,159,66);"/>
<path d="M 134,75L 133,75L 133,77L 134,78L 135,79L 136,80L 137,80L 140,79L 142,78L 142,77L 139.0703,76.543L 136.4023,75.8789Z" style="fill:rgb(80,159,66);"/>
<path d="M 149,233L 141,233L 141,234L 143,235L 146,236L 149,237L 155,237L 155,236L 154,235.334L 152,234L 151,233.668Z" style="fill:rgb(80,159,66);"/>
<path d="M 162,236L 161,236L 160,236L 159,236L 158,236L 158,238L 168,238L 168,237L 165.332,236.334L 164,236Z" style="fill:rgb(80,159,66);"/>
<path d="M 163,93L 160,93L 160,94L 160.7949,96.4727L 161.2051,99.0352L 161.1387,101.6719L 161,103L 161,104L 161.2261,105.3721L 161.6187,108.0791L 161.8926,110.707L 162,112L 163,113L 164,113L 165,112L 165,109L 164.4941,106.3438L 164.166,103.5156L 164.0303,100.5234L 164,99L 163.7344,97.5313L 163.2344,94.5313Z" style="fill:rgb(80,159,66);"/>
<path d="M 176,232L 175,232L 173,233L 172,234L 172,236L 175,236L 177,234L 177,233Z" style="fill:rgb(80,159,66);"/>
<path d="M 179,235L 180.332,234.666L 183,234L 183,233L 177,233L 175,234L 175,235Z" style="fill:rgb(80,159,66);"/>
<path d="M 186,228L 185,228L 184.334,229.334L 183,232L 183,233L 185,233L 186,232Z" style="fill:rgb(80,159,66);"/>
<path d="M 77.7341,233.4022L 76.7878,235.5673L 75.0996,236.1935L 73.2938,235.2335L 72.0438,233.1728L 71.6699,231.8203L 71.3386,230.4177L 70.738,227.5388L 70.2344,224.5313L 70,223L 69,223L 68,225L 68,226L 68.4746,228.9102L 68.6426,230.3555L 68.8867,233.1641L 68.9814,235.7637L 69,237L 70,239L 71,240L 72,241L 73,242L 75,243L 77,243L 80,242L 82.043,240.7959L 84.2148,239.7246L 86.6602,238.8979L 89.4375,238.3691L 92.4531,238.0903L 94,238L 94,237L 92.7939,236.7061L 91.6455,236.3545L 89.4934,235.5007L 87.6479,234.3071L 86.0791,232.7588L 84.676,230.9509L 84,230L 78,230L 78,232Z" style="fill:rgb(105,181,91);"/>
<path d="M 74,176L 74.2344,174.7344L 74.7344,172.2344L 75,171L 75.2344,169.7344L 75.7344,167.2344L 76,166L 76.2344,164.7344L 76.7344,162.2344L 77,161L 77.2461,159.7324L 77.7783,157.1758L 78.4121,154.5449L 79.165,151.8086L 80,149L 80.2559,147.7109L 80.8652,145.1582L 81.7188,142.6777L 82.8652,140.3145L 84.2559,138.084L 85,137L 85,135L 83,135L 82,136L 81,137L 80,139L 79,142L 78.7539,143.2676L 78.2217,145.8242L 77.5879,148.4551L 76.835,151.1914L 76,154L 75.334,156.668L 75,158L 74.7656,159.2656L 74.2656,161.7656L 74,163L 73.7656,164.2656L 73.2656,166.7656L 73,168L 72.5098,171.0195L 71.9551,173.9102L 71.6416,175.2832L 70.998,177.9961L 70.334,180.668L 70,182L 70,195L 71,195L 71.0879,193.1758L 71.3418,189.6836L 71.5479,188.0957L 72.0039,184.9766L 72.5479,181.9199L 73.2148,178.9219Z" style="fill:rgb(105,181,91);"/>
<path d="M 96,123L 94.7344,122.7656L 92.2344,122.2656L 91,122L 87,122L 87,123L 90,124L 96,124Z" style="fill:rgb(105,181,91);"/>
<path d="M 116,55L 116.5488,52.4346L 116.8877,51.1763L 117.646,48.7075L 118.0923,47.5308L 119.0225,45.2456L 119.5129,44.1665L 120.5018,42.0547L 121.5001,40.0127L 122.5,38.0017L 123,37L 123.5,35.7744L 124,34.5811L 125,32.2668L 125.5,31.1796L 126.5,29.0574L 127,28.0352L 128,26.0074L 128.5,25.0042L 129.5,23.0005L 130.5,21L 131,20L 131,18L 130,18L 129,19L 128,21L 127,23L 126,25L 125,27L 124,29L 123,31L 122,33L 121.5,34.2256L 121,35.4189L 120,37.7332L 119.5,38.8204L 118.5,40.9426L 117.5,42.9871L 116.5,44.9983L 116,46L 115,49L 114,52L 113.334,54.668L 113,56L 113,58L 115,58Z" style="fill:rgb(105,181,91);"/>
<path d="M 122,154.666L 123,154L 124,153L 124,152L 121,152L 119.8594,152.4297L 117.4961,153.248L 115,154L 115,158L 117,158L 119,156.666L 120,156Z" style="fill:rgb(105,181,91);"/>
<path d="M 138,11L 135,11L 134,12L 133,13L 132.334,14L 131,16L 131,18L 132,18L 133,17L 134,16L 135.5371,14.3223L 137.1611,12.752L 138,12Z" style="fill:rgb(105,181,91);"/>
<path d="M 139,81L 141,81L 142,81L 142,78L 140,78L 137.4844,78.5156L 135,79L 135,81Z" style="fill:rgb(105,181,91);"/>
<path d="M 146,23L 145.377,21.9648L 144.1719,19.8203L 143.0537,17.4922L 142,15L 140.666,13L 140,12L 138,12L 138,13L 139,15L 139.668,16.333L 141,19L 142,21L 143,23.0039L 144,25.0391L 145,27.1797L 146,29.5078L 146.5,30.7539L 147,32.0039L 147.5,33.2764L 148.498,35.8838L 149.4785,38.6147L 150.3887,41.4253L 151.1367,44.2563L 151.6563,47.1099L 152,50L 152.248,51.3633L 152.6777,54.1406L 153,57L 153.3975,59.7969L 153.6238,62.561L 153.5642,65.229L 153.2271,67.7646L 153,69L 153,71L 153.668,71.998L 155,74L 156,74L 156,59L 155.7344,57.7656L 155.2344,55.2656L 154.752,52.6367L 154.3223,49.8594L 154,47L 153.7344,45.5313L 153.2344,42.5313L 153,41L 152,38L 151.5,36.7461L 150.5,34.1582L 149.5,31.4121L 149,30L 148,27.5313L 147,25Z" style="fill:rgb(105,181,91);"/>
<path d="M 147.4224,139.3671L 150.4377,138.0286L 153,137L 154,136L 155.332,133.3301L 156,132L 157,129L 157,127L 156,127L 155,128L 153.3928,129.9785L 152.5455,130.9346L 150.7901,132.7734L 148.9236,134.4443L 146.9793,135.9434L 144.9966,137.3271L 144,138L 143,139L 142,140L 142,141L 144,141L 147.4965,139.36Z" style="fill:rgb(105,181,91);"/>
<path d="M 156,235L 153.6387,235.6113L 151.207,235.8535L 148.6543,235.5957L 146,235L 145,235L 145,237L 148,238L 151,239L 154.3555,239.3223L 157.4961,239.752L 159,240L 168,240L 171,239L 174,238L 177,237L 180,236L 183,235L 183,234L 179,234L 177.668,234.334L 175,235L 173.668,235.334L 171,236L 168.1016,236.7383L 165.2129,237.1895L 162.4688,237.082L 160.0684,236.2881L 158,235Z" style="fill:rgb(105,181,91);"/>
<path d="M 153,74L 153,71L 152,71L 150,72.334L 149,73L 148,74L 148,75L 150,75Z" style="fill:rgb(105,181,91);"/>
<path d="M 155,230L 149,230L 148,231L 148,232L 148.668,232.999L 150,235L 151,235L 152,235L 154,235L 155,234Z" style="fill:rgb(105,181,91);"/>
<path d="M 158,128L 159,129L 160,129L 162,129L 163,129L 163.2344,127.4688L 163.7344,124.4688L 164,123L 164,119L 163,116L 162,116L 161,118L 160,120L 159.5,121.2656L 158.5,123.7656L 158,125Z" style="fill:rgb(105,181,91);"/>
<path d="M 164,231L 163,231L 162,231.624L 160,232.8389L 158,234L 158,236L 159,237L 160,237L 161,237L 162,237L 163,236L 164,233Z" style="fill:rgb(105,181,91);"/>
<path d="M 165,104L 163,104L 163,108L 164,109L 165,109Z" style="fill:rgb(105,181,91);"/>
<path d="M 172,235L 174,233.666L 175,233L 175,232L 170,232L 170,233L 171,235Z" style="fill:rgb(105,181,91);"/>
<path d="M 75,200L 75,198L 73,196L 72,196L 71.334,198.668L 71,200L 70.334,202.668L 70,204L 70,217L 72,217L 72.666,215.666L 74,213L 74,209L 73.6563,207.834L 73.4854,206.667L 73.4922,204.3535L 74.0908,202.124Z" style="fill:rgb(80,109,71);"/>
<path d="M 92.9961,72.623L 92.9502,74.0376L 92.7295,76.6343L 92.2178,78.9878L 91.4326,81.3608L 90.4922,83.7813L 90,85L 89,87.9346L 88,90.7617L 87,93.3857L 86,95.7734L 85,98L 84,101L 83,104L 82,107L 81,110L 80,113L 79.624,114.248L 78.8389,116.6777L 78,119L 78,122L 79,123L 80,124L 81,125L 83,125L 84,124L 84,123L 83.5087,121.9416L 82.7215,119.7175L 82.4082,117.2597L 82.6141,114.5968L 83.2087,111.8208L 84,109L 84.3872,107.6133L 85.1938,104.8506L 85.6334,103.4988L 86.5461,100.8672L 87.5112,98.4102L 88.5017,96.1489L 89.5001,94.0325L 90,93L 90.5,91.5195L 91.5,88.6094L 92.5,85.8438L 93.5,83.2539L 94,82L 95,79L 96,76L 96.7627,73.0957L 97.7627,70.4297L 99,68L 99,67L 96,67L 95,68L 94.334,69L 93,71Z" style="fill:rgb(80,109,71);"/>
<path d="M 141,233L 134,233L 134,234L 141,234Z" style="fill:rgb(80,109,71);"/>
<path d="M 147,87L 145,88L 144,89L 144,92L 146,92L 148,91L 149,90L 149,87Z" style="fill:rgb(80,109,71);"/>
<path d="M 162,175L 162,166L 161,166L 161,175Z" style="fill:rgb(80,109,71);"/>
<path d="M 165,92L 165,93L 166.584,94.8965L 167.7949,97.0664L 168.5488,99.7949L 169,103L 169.248,104.3633L 169.6777,107.1406L 170,110L 170.2656,111.4688L 170.7656,114.4688L 171,116L 172,116L 172,109L 171.752,107.4961L 171.3223,104.3555L 171,101L 170.752,99.6367L 170.3223,96.8594L 170,94L 169,93L 168,92Z" style="fill:rgb(80,109,71);"/>
<path d="M 168,167L 167.752,165.4961L 167.3223,162.3555L 167,159L 166,159L 166,171L 166.2461,172.5078L 166.6563,175.6875L 166.8906,179.2188L 166.9785,183.043L 166.998,187.0039L 167,190.5L 167,192L 167.2461,193.5078L 167.6563,196.6875L 167.8906,200.1563L 167.9785,203.668L 168,207L 168.2461,208.5078L 168.6563,211.6563L 168.8906,215L 168.9805,218.3516L 169,220L 169.2656,221.2344L 169.7656,223.7344L 170,225L 171,227L 172,228L 175,229L 178,229L 179.4688,228.7344L 182.4688,228.2344L 184,228L 184,227L 182.1992,226.8906L 180.5176,226.709L 177.457,226.1494L 175.0557,225.1182L 173.3203,223.4922L 172.1514,221.2217L 171.457,218.3877L 171.1289,215.2344L 171,212L 170.7539,210.4922L 170.3438,207.3125L 170.1094,203.7813L 170.0215,199.957L 170,196L 169.752,194.6367L 169.3223,191.8594L 169,189L 168.7539,187.4922L 168.3438,184.3125L 168.1094,180.7813L 168.0215,176.957L 168.002,172.9961L 168,169Z" style="fill:rgb(80,109,71);"/>
<path d="M 175,131L 174.752,129.4961L 174.3223,126.3555L 174,123L 173.752,121.6367L 173.3223,118.8594L 173,116L 172,116L 172,124L 172.3223,126.6445L 172.3203,129.2266L 171.8379,131.6758L 171,134L 171,136L 172,136L 173,135L 174,134L 175,132Z" style="fill:rgb(80,109,71);"/>
<path d="M 78,133L 80,134L 81,134L 83,132.666L 84,132L 84,130L 83,129L 77,129L 75,130L 75,131L 76,132Z" style="fill:rgb(209,208,105);"/>
<path d="M 106,146L 105,144L 104,142L 102.4902,140.4648L 101.0449,138.793L 99.6719,136.9551L 99,136L 97.1074,134.7744L 95.3438,133.3975L 93.7539,131.8281L 93,131L 92.0879,130.4121L 90.3418,129.1582L 89.5479,128.4521L 87.877,126.873L 87,126L 85,125L 81,125L 81,128L 82.8086,130.0156L 84.1406,132.3516L 85,135L 86,135.5059L 88,136.5391L 90,137.6519L 92,138.9204L 94,140.3877L 96,142L 98,143.6072L 100,145.3008L 102,147.1111L 104,149L 105,149L 106,148Z" style="fill:rgb(209,208,105);"/>
<path d="M 99,61L 99,62L 102,63L 107,63L 108,62L 108,61Z" style="fill:rgb(209,208,105);"/>
<path d="M 121,70L 119,68.4224L 117,66.7556L 115,65L 113.0391,64.9805L 109.2188,64.8906L 105.6875,64.6563L 102.5078,64.2461L 101,64L 99,64L 99,66L 101.4521,66.5479L 102.6187,66.8813L 104.9409,67.6294L 107.314,68.522L 109.7793,69.5137L 112.2617,70.584L 114.6777,71.752L 117,73L 119,74L 120,74L 121,71Z" style="fill:rgb(209,208,105);"/>
<path d="M 109,151L 108,149L 107,147L 106,147L 105,148L 105,151L 106.334,153L 107,154L 108,155L 109,155Z" style="fill:rgb(209,208,105);"/>
<path d="M 113,168L 114,167L 115,166L 115,163L 113,163L 111,164L 110,165L 109,166L 108,167L 108,170L 109,170L 111,169Z" style="fill:rgb(209,208,105);"/>
<path d="M 166,136L 165,136L 162.4521,137.4922L 159.7852,138.8242L 158.3926,139.4121L 155.8594,140.4297L 153.4961,141.248L 151,142L 148.5313,143L 146,144L 144.9092,144.5391L 142.5332,145.6758L 139.8389,146.8594L 137,148L 135,149L 133.9648,149.623L 131.8203,150.8281L 129.4922,151.9463L 127,153L 124.9551,154.6875L 122.8066,156.2539L 120.4785,157.6719L 118,159L 117,160L 116,161L 115,162L 115,165L 116,165L 117.332,164.666L 120,164L 122.0039,162.5811L 124.0391,161.2668L 126.1797,160.0923L 128.5078,159.0222L 131,158L 132,157.5L 134.0039,156.502L 136.0391,155.5195L 138.1797,154.5898L 140.5078,153.7539L 143,153L 146,152L 147.084,151.502L 149.3145,150.5215L 151.6777,149.6094L 154.1582,148.8438L 155.4346,148.5488L 156.7544,148.2676L 159.5059,147.7275L 162.4688,147.2344L 164,147L 165.0581,144.7537L 166.2502,144.0001L 168.3296,143.7332L 170,145L 171,145L 172.4688,144.7344L 175.4688,144.2344L 177,144L 180,143L 180,142L 179,141L 177.959,140.4639L 175.8516,139.2656L 173.8262,137.7646L 172,136L 169,136Z" style="fill:rgb(209,208,105);"/>
<path d="M 138,97L 137,97L 136,98L 135,99L 135,102L 137,102L 139,101L 140,100L 140,99L 139,98Z" style="fill:rgb(209,208,105);"/>
<path d="M 154,85L 151,85L 150.3291,85.947L 148.9482,87.7661L 147.4502,89.3882L 145.7876,90.7743L 144.8938,91.3871L 143.9469,92.0276L 142,93.334L 141,94L 140,95L 139,96L 138,97L 138,98L 139,99L 142,99L 144.4688,98L 147,97L 148.0859,96.502L 150.3359,95.5215L 152.791,94.6113L 155.5293,93.8652L 158.5566,93.3652L 161.7598,93.1094L 165,93L 166,92L 166,88L 163,87L 161.4492,86.8242L 158.3945,86.3164L 155.4453,85.4922Z" style="fill:rgb(209,208,105);"/>
<path d="M 66,230L 67,231L 69,231L 69,226L 69,225L 69,223L 68.752,221.6367L 68.3223,218.8594L 68,216L 67,216L 66.9121,217.8242L 66.6582,221.3164L 66.2461,224.4922L 66,226Z" style="fill:rgb(132,186,125);"/>
<path d="M 187,232L 185,232L 183,233L 181.8384,233.623L 179.4185,234.8281L 178.0997,235.3867L 175.3655,236.4653L 173.9315,236.969L 171.0548,237.9285L 168.2004,238.74L 165.4276,239.2754L 162.7715,239.4189L 160.2383,239.1914L 159,239L 157.3086,238.8281L 154.0254,238.3975L 150.9434,237.7744L 148,237L 145.332,236.334L 144,236L 133,236L 130.3086,236.4521L 127.6387,236.7852L 125,237L 123.834,237.4043L 121.5,237.9746L 119.166,238.0703L 118,238L 115,238L 112.5898,238.75L 109.9941,239.2549L 107.25,239.3086L 104.5566,238.8369L 102,238L 101,238L 99.668,238.1582L 97,238.3164L 94.332,238.1582L 93,238L 85,238L 83.9785,238.5059L 82.9136,239.0088L 81.7957,239.481L 79.4651,240.2861L 77.0164,240.6582L 74.6462,240.3569L 72.5627,239.3472L 70.8308,237.8047L 69.3572,235.9634L 68,234L 67,234L 67,238L 68,240L 69,241L 70,242L 72,243L 74,244L 79,244L 80.2344,243.5L 82.7773,242.4883L 85.5469,241.498L 88.6445,240.709L 92,240.3281L 95.3555,240.3867L 98.4961,240.7578L 100,241L 125,241L 126.4766,240.5195L 129.4219,239.6094L 130.9063,239.2266L 132.3896,238.896L 133.8521,238.624L 135.2834,238.418L 138.0847,238.1514L 140.79,238.1949L 143.4751,238.5614L 146.2104,239.2017L 149,240L 151.8594,240.3223L 154.6367,240.752L 156,241L 157.5313,241.2344L 160.5313,241.7344L 162,242L 165,242L 166.332,241.666L 169,241L 170.332,240.666L 173,240L 176,239L 177.2539,238.5L 179.8418,237.5L 182.5879,236.5L 184,236L 186,235L 187,234Z" style="fill:rgb(132,186,125);"/>
<path d="M 70.0215,194.043L 70.1094,190.2188L 70.2266,188.4531L 70.5557,185.1113L 71.0566,182.1133L 71.3647,180.7295L 72.0024,178.0049L 72.666,175.332L 73,174L 73.2344,172.4688L 73.7344,169.4688L 74.2344,166.7344L 74.7344,164.2344L 75,163L 75.2461,161.7324L 75.7783,159.1758L 76.4121,156.5449L 77.165,153.8086L 78,151L 78.666,148.332L 79,147L 79.2539,145.7109L 79.8438,143.1563L 80.6094,140.6563L 81.5195,138.2109L 82,137L 82,136L 79,136L 78,139L 77,142L 76.334,144.668L 76,146L 75.4648,148.5898L 74.7988,151.252L 74,154L 73.334,156.668L 73,158L 72.5098,160.5313L 71.9551,163.082L 71.3281,165.6836L 71,167L 70.8281,168.4453L 70.3975,171.3184L 69.7744,174.1641L 69,177L 68.7656,178.2656L 68.2656,180.7656L 68,182L 68,201L 69,201L 70,198Z" style="fill:rgb(132,186,125);"/>
<path d="M 78,194L 79,193L 80,192L 80,190L 78,190L 76,191L 76,195L 77,195Z" style="fill:rgb(132,186,125);"/>
<path d="M 82,189L 82,186L 80,186L 79,187L 78,189L 78,190L 80,191L 81,191Z" style="fill:rgb(132,186,125);"/>
<path d="M 92.666,178L 94,176L 94,173L 93,173L 91,174.334L 90,175L 89,176L 88,177L 87,178L 86,179L 85,180L 84,181L 83,182L 82.334,183L 81,185L 81,186L 82,187L 84,187L 85,186L 86,185L 87,184L 88,183L 88.7344,182.2344L 90.2344,180.7344L 91,180L 92,179Z" style="fill:rgb(132,186,125);"/>
<path d="M 113.5776,117L 114.411,116L 116.0787,114.0547L 117.6909,112.2891L 119.2344,110.7344L 120,110L 121,109L 122,107L 122,106L 120,106L 118,107L 117,107.9805L 115,109.8906L 113,111.6563L 111,113.2461L 110,114L 108.0459,115.9277L 106.1841,117.5859L 104.2769,118.8164L 102.1387,119.6582L 101,120L 99.9824,120.7041L 97.9102,121.9795L 95.7441,122.8794L 93.4805,123.2544L 91.1641,123.1504L 90,123L 87,123L 87,125L 87.9829,125.6729L 89.895,127.0557L 91.6587,128.5439L 93.2466,130.1611L 94,131L 97,131L 98,130.1719L 100,128.6025L 102,127.2256L 104,126L 105,125.0195L 107,123.1094L 109,121.3438L 111,119.7539L 112,119Z" style="fill:rgb(132,186,125);"/>
<path d="M 100,177L 100,174L 99,174L 98,175L 97,176L 96,177L 95,178L 94,179L 93,180L 92,181L 92,182L 94,182L 96,180.666L 97,180L 98,179L 99,178Z" style="fill:rgb(132,186,125);"/>
<path d="M 103,169L 104,168L 105,167L 106,166L 106,165L 105,162L 104,162L 102,163.334L 101,164L 100,165L 98.4629,166.6777L 96.8389,168.248L 96,169L 95,170L 94,171L 93,172L 93,173L 94,175L 95,175L 97,174L 98.9873,172.1758L 100.9863,170.5078Z" style="fill:rgb(132,186,125);"/>
<path d="M 111,162L 111,160L 110,159L 108,159L 107,160L 106.334,161L 105,163L 105,165L 107,165L 109,164L 110,163Z" style="fill:rgb(132,186,125);"/>
<path d="M 109,57L 109,59L 110,60L 111,60L 111.666,57.332L 112,56L 112,53L 111,53L 110,55Z" style="fill:rgb(132,186,125);"/>
<path d="M 138,11L 140,9L 140,8L 139,7L 138,6L 137,6L 135,7L 134,8L 133,9L 131.9355,11L 130.7734,13L 129.4512,15L 128,17L 127,19L 126,21L 125.4297,22.248L 124.248,24.6777L 123,27L 122,29L 121,31L 120,33L 119.498,34.2256L 118.4805,36.6123L 117.4102,38.854L 116.2461,40.9619L 115,43L 114.5195,44.2539L 113.5352,46.6758L 112.5156,48.9219L 112,50L 111.7656,51.5313L 111.2656,54.5313L 111,56L 111,58L 112,58L 113,57L 114,56L 114.3872,54.6133L 115.1938,51.8506L 115.6334,50.4988L 116.5461,47.8672L 117.0287,46.6387L 118.0065,44.2798L 118.5037,43.187L 119.5005,41.0583L 120.5,39.013L 121.5,37.0017L 122,36L 122.5,34.7744L 123,33.5811L 124,31.2668L 124.5,30.1796L 125.5,28.0574L 126.502,26.0129L 127.5195,24.0018L 128.5898,22.0001L 129.1719,21.0001L 129.7788,20L 131.0435,18.0039L 132.4331,16.0391L 134.0264,14.1797L 135.9014,12.5078Z" style="fill:rgb(132,186,125);"/>
<path d="M 116,65L 117.0313,65.7344L 119.0313,67.2344L 120,68L 122,68L 123,67L 123,66L 122,65L 121,64L 120,63L 119,62L 118,61L 116,60L 115,60L 115,62Z" style="fill:rgb(132,186,125);"/>
<path d="M 127,103L 127,101L 125,101L 123,102L 121,103L 121,105L 122,107L 123,107L 124,106L 125,105L 126,104Z" style="fill:rgb(132,186,125);"/>
<path d="M 124,66L 123,66L 122,67L 122,69L 123,70L 124,70L 126,69L 126,68L 125,67Z" style="fill:rgb(132,186,125);"/>
<path d="M 125,72L 126,73L 127,73L 128,73L 130,73L 130,72L 129,71L 128,70L 127,69L 124,69L 124,71Z" style="fill:rgb(132,186,125);"/>
<path d="M 155,85L 156.9463,83.6211L 158.9438,82.623L 161,82L 162,81L 162,79L 161.3438,78.0664L 160.2051,75.9336L 159.4512,73.2051L 159,70L 158.7539,68.5078L 158.3438,65.4375L 158.1074,62.2383L 158,59L 157.7539,57.5547L 157.3418,54.6055L 157.0879,51.5508L 157,50L 156.7344,48.7656L 156.2344,46.2656L 156,45L 155.666,43.668L 155,41L 154,38L 153,35.5313L 152,33L 151.5176,31.9648L 150.5898,29.8203L 149.7539,27.4922L 149,25L 148.3872,23.9961L 147.1938,21.9609L 146.073,19.8203L 145.019,17.4922L 144,15L 143.376,14L 142.1611,12L 141,10L 140,9L 138,9L 138,12L 139.666,14.332L 140.4111,15.4937L 141.7822,17.771L 142.9482,19.9348L 144,22L 144.624,23.1406L 145.228,24.3145L 146.3916,26.7168L 147.4722,29.2188L 148.4966,31.834L 149.5,34.5879L 150,36L 150.4805,37.2305L 151.3906,39.7656L 152.1563,42.5L 152.7461,45.4648L 153,47L 153.248,48.3633L 153.6777,51.1406L 154,54L 154.2656,55.2344L 154.7656,57.7344L 155.0049,59.0918L 155.4141,61.9141L 155.4619,63.3613L 155.2456,66.1592L 154.8091,67.4297L 153.6985,69.769L 152.2524,71.6592L 150.5742,73.0742L 148.5664,74.0664L 146.2324,74.7324L 145,75L 143,76L 142.0125,76.7939L 141.0172,77.4409L 139.7758,77.8906L 137.343,78.2158L 135.3181,77.4263L 133.7422,75.8806L 133,75L 132,74L 131,73L 128,72L 127,72L 127,76L 127.7256,76.7744L 128.4189,77.5811L 129.7332,79.2668L 130.9077,81.0923L 131.9778,83.0222L 133,85L 133.708,86.0352L 135.0229,88.1797L 136.1064,90.5078L 137,93L 140,93L 141,92.998L 143,93L 144,93L 145.3765,91.0435L 147.2144,89.4834L 149.6475,88.4204L 151,88L 152.9375,86.4531Z" style="fill:rgb(132,186,125);"/>
<path d="M 129,106L 131,106L 132,105L 132,104L 131,103L 129,103Z" style="fill:rgb(132,186,125);"/>
<path d="M 132,101L 131,103L 131,104L 133,104L 135,103L 135,100L 133,100Z" style="fill:rgb(132,186,125);"/>
<path d="M 146,143L 146,142L 144,141L 140,141L 138,142L 137,143L 136,144L 136,147L 137,147L 139.8027,145.6396L 141.1348,145.0176L 143.6709,143.9009Z" style="fill:rgb(132,186,125);"/>
<path d="M 159.9919,137.0088L 162.6445,136.0742L 165.5039,135.3223L 167,135L 167,131L 166.752,129.6367L 166.3223,126.8594L 166,124L 165.7539,122.4922L 165.3438,119.3125L 165.1074,115.7852L 165,112L 164,112L 163,113L 162.9941,114.9199L 162.9644,116.7178L 162.8813,118.3799L 162.6992,119.8955L 162.3809,121.2408L 161.444,123.5427L 159.9369,125.0255L 158.0241,125.7759L 157,126L 156.4121,127.2593L 155.1582,129.6846L 154.4521,130.8049L 153.0024,132.9382L 151.4443,134.8379L 149.6338,136.4668L 147.4521,137.8223L 145,139L 144,140L 144,142L 147,142L 148.332,141.666L 151,141L 152.2874,140.376L 154.8525,139.168L 157.6985,137.9399Z" style="fill:rgb(132,186,125);"/>
<path d="M 170,151L 169,151L 169,167L 170,167Z" style="fill:rgb(132,186,125);"/>
<path d="M 171,168L 170,168L 170,186L 171,186Z" style="fill:rgb(132,186,125);"/>
<path d="M 185,224L 182.1406,223.6777L 179.3633,223.248L 178,223L 177,223L 177,225L 185,225Z" style="fill:rgb(132,186,125);"/>
<path d="M 186,232L 187,233L 188,233L 189,232L 189,228L 188,226L 187,225L 185,225L 185,226L 185.4795,228.3223L 185.8491,230.752Z" style="fill:rgb(132,186,125);"/>
<path d="M 74,207L 73.7344,205.7656L 73.2344,203.2656L 73,202L 72,202L 71.7656,203.2656L 71.2656,205.7656L 71,207L 71,211L 72,212L 73,212L 74,209Z" style="fill:rgb(55,89,45);"/>
<path d="M 76,201L 76,203L 78,203L 79,201L 79,197L 78,197L 77,199Z" style="fill:rgb(55,89,45);"/>
<path d="M 87,126L 87,121L 86.4424,120.0884L 85.5454,118.1708L 85.186,116.0178L 85.2983,114.8078L 85.5042,113.5598L 86.0458,111.0392L 86.7767,108.5552L 87.6128,106.2256L 88.5269,104.0537L 89,103L 89.5,101.5879L 90.5,98.8418L 91.5,96.2539L 92,95L 92.376,93.752L 93.1611,91.3223L 94,89L 94.5,87.5879L 95.5,84.8418L 96.5,82.2539L 97,81L 97.5,79.7344L 98.5,77.2344L 99,76L 99,75L 98.9375,72.5313L 99,70L 99,68L 98,68L 97,69L 96,70L 95.7256,71.5391L 95.1123,74.5664L 94.354,77.4639L 93.4614,80.1904L 92.4941,82.7539L 92,84L 91,86.9346L 90.5,88.3481L 89.5,91.0732L 88.5,93.5732L 87.5,95.8481L 86.5,97.9673L 86,99L 85,102L 84,105L 83.624,106.3887L 82.8389,109.1816L 82,112L 81.624,113.3887L 80.8389,116.1816L 80,119L 80,121L 81.5313,123L 83,125L 85,126Z" style="fill:rgb(55,89,45);"/>
<path d="M 79,196L 79,197L 82,197L 83,196L 84,195L 84.332,194L 85,192L 85,191L 82,191L 81.4272,192L 80.2441,194Z" style="fill:rgb(55,89,45);"/>
<path d="M 142,232L 142,231L 141,230L 139,229L 136,229L 136,231L 137,232Z" style="fill:rgb(55,89,45);"/>
<path d="M 157,234L 160,234L 161,233L 161,232L 156,232L 156,233Z" style="fill:rgb(55,89,45);"/>
<path d="M 165,136L 160,136L 160,137L 162.668,137.666L 164,138L 165,138Z" style="fill:rgb(55,89,45);"/>
<path d="M 162,208L 162,198L 161,198L 161,208Z" style="fill:rgb(55,89,45);"/>
<path d="M 167,223L 169,223L 169,207L 168.7539,205.4922L 168.3438,202.3125L 168.1094,198.8438L 168.0215,195.332L 168,192L 167.7539,190.4922L 167.3438,187.3125L 167.1094,183.7813L 167.0215,179.957L 167.002,175.9961L 167,172.5L 167,171L 166.7344,169.5313L 166.2344,166.5313L 166,165L 165.666,163.668L 165,161L 164,161L 164,170L 164.2461,171.5078L 164.6563,174.6563L 164.8906,178L 164.9805,181.3516L 165,183L 165.2461,184.5078L 165.6563,187.6563L 165.8906,191L 165.9805,194.3516L 166,196L 166.2461,197.5078L 166.6563,200.6875L 166.8906,204.2188L 166.9785,208.043L 166.998,212.0039L 167,214L 167.1582,215.166L 167.3164,217.5L 167.1582,219.834L 167,221Z" style="fill:rgb(55,89,45);"/>
<path d="M 166,199L 166,193L 165.7344,191.5313L 165.2344,188.5313L 165,187L 164,187L 164,198L 165,199Z" style="fill:rgb(55,89,45);"/>
<path d="M 166,213L 166,199L 164,199L 164,200L 164.2461,201.5078L 164.6563,204.6563L 164.8906,208L 164.9805,211.3516L 165,213Z" style="fill:rgb(55,89,45);"/>
<path d="M 166,124L 166,113L 165,113L 165,124Z" style="fill:rgb(55,89,45);"/>
<path d="M 168,94L 166,94L 166,96L 166.4102,97.1797L 167.1367,99.7109L 167.6348,102.6055L 167.8906,105.7656L 168,109L 168.2656,110.2344L 168.7656,112.7344L 169,114L 169.2656,115.2344L 169.7656,117.7344L 170.248,120.5039L 170.4629,122.0742L 170.645,123.6357L 170.9312,126.6533L 171.041,129.4219L 171,132L 171,134L 172,134L 173,133L 173,124L 172.752,122.4961L 172.3223,119.3555L 172,116L 171.7344,114.5313L 171.2344,111.5313L 171,110L 170.752,108.6367L 170.3223,105.8594L 170,103L 169.752,101.4961L 169.3223,98.3555L 169,95Z" style="fill:rgb(55,89,45);"/>
<path d="M 167,131L 167,124L 166,124L 166,131Z" style="fill:rgb(55,89,45);"/>
<path d="M 167,229L 169,229L 170,228L 170,225L 169,224L 168,224L 167,225Z" style="fill:rgb(55,89,45);"/>
<path d="M 167,229L 166,230L 166,233L 167,234L 170,234L 170,232L 170,231L 170,229Z" style="fill:rgb(55,89,45);"/>
<path d="M 67,204L 67,206L 67,207L 67,216L 67.248,217.3633L 67.6777,220.1406L 68,223L 69,223L 69.002,219.7539L 69.0215,216.043L 69.1094,212.2188L 69.3438,208.6875L 69.7539,205.5078L 70,204L 70,198L 69,198L 68,201Z" style="fill:rgb(131,151,120);"/>
<path d="M 77,119L 76,119L 74.668,121.668L 74,123L 74,124L 75,125L 77,125Z" style="fill:rgb(131,151,120);"/>
<path d="M 80,113L 78,113L 77,115L 77,119L 79,119L 80,117Z" style="fill:rgb(131,151,120);"/>
<path d="M 82,110L 82.3223,107.1406L 82.752,104.3633L 83,103L 83,100L 82,100L 81,102L 80.2256,104.6875L 79.3872,107.292L 78.4731,109.7822L 78,111L 78,112L 79,113L 81,113Z" style="fill:rgb(131,151,120);"/>
<path d="M 92,81L 91,81L 89,82L 88,84L 87,86L 86.624,87.248L 85.8389,89.6777L 85,92L 84,95L 84,98L 86,98L 87,96L 88,94L 88.5,92.5195L 89.5,89.6094L 90.5,86.8438L 91.5,84.2539L 92,83Z" style="fill:rgb(131,151,120);"/>
<path d="M 86,188L 85,188L 84,190L 84,191L 87,191L 87,189ZM 87,187L 86,187L 86,188L 87,188Z" style="fill:rgb(131,151,120);"/>
<path d="M 88,62L 88,66L 89,67L 90,68L 91,69L 93,69L 93.1816,67.5996L 93.8555,65.2236L 95.1738,63.624L 96,63L 96,62L 94,61L 90,61Z" style="fill:rgb(131,151,120);"/>
<path d="M 91,82L 92,81L 93,80L 94,78L 94.666,75.332L 95,74L 95,73L 92,73L 91,76L 90.334,78.668L 90,80L 90,82Z" style="fill:rgb(131,151,120);"/>
<path d="M 102,237L 94,237L 93,238L 93,239L 101,239L 102,238Z" style="fill:rgb(131,151,120);"/>
<path d="M 113,239L 103,239L 103,240L 113,240Z" style="fill:rgb(131,151,120);"/>
<path d="M 113,61L 113,57L 112,57L 111,58L 110,60L 110,61L 111,62L 112,62Z" style="fill:rgb(131,151,120);"/>
<path d="M 117,237L 117,238L 118,239L 125,239L 125,237Z" style="fill:rgb(131,151,120);"/>
<path d="M 129,104L 128,104L 127,105L 126,107L 126,108L 128,108L 129,107Z" style="fill:rgb(131,151,120);"/>
<path d="M 132,98L 132,87L 131,87L 131,98Z" style="fill:rgb(131,151,120);"/>
<path d="M 145,237L 145,235L 134,235L 134,236L 135.8242,236.0879L 139.3164,236.3418L 142.4922,236.7539L 144,237Z" style="fill:rgb(131,151,120);"/>
<path d="M 158,79L 156,79L 156,85L 157,85L 159,84L 160,83L 160,81L 159,80Z" style="fill:rgb(131,151,120);"/>
<path d="M 167,135L 161,135L 161,136L 167,136Z" style="fill:rgb(131,151,120);"/>
<path d="M 169,147L 167,147L 167,152L 167.2461,153.5078L 167.6563,156.6875L 167.8906,160.1563L 167.9785,163.668L 168,167L 169,167Z" style="fill:rgb(131,151,120);"/>
<path d="M 172,191L 171.7344,189.7656L 171.2344,187.2656L 170.7539,184.4922L 170.3438,181.3125L 170.1094,177.7813L 170.0215,173.957L 170.002,170.2461L 170,167L 169,167L 169,188L 169.248,189.3633L 169.6777,192.1406L 170,195L 170.2461,196.5078L 170.6563,199.6875L 170.8906,203.2188L 170.9785,207.043L 171,211L 171.2656,212.4688L 171.7656,215.4688L 172,217L 173,217L 173,209L 172.7539,207.4922L 172.3438,204.3125L 172.1094,200.7813L 172.0215,196.957L 172.002,192.9961Z" style="fill:rgb(131,151,120);"/>
<path d="M 177,91L 178,89L 178,85L 177,84L 175,84L 174,85L 173,86L 172,87L 170.668,89.001L 170,90L 170,92L 171,93L 173,93L 176,92Z" style="fill:rgb(131,151,120);"/>
<path d="M 172,109L 172,96L 171,96L 171,109Z" style="fill:rgb(131,151,120);"/>
<path d="M 173,116L 173,105L 172,105L 172,116Z" style="fill:rgb(131,151,120);"/>
<path d="M 174,131L 174.2656,132.2344L 174.7656,134.7344L 175,136L 176,136L 177,135L 177,131L 176.752,129.6367L 176.3223,126.8594L 176,124L 175.752,122.4961L 175.3223,119.3555L 175,116L 174.7344,114.7656L 174.2344,112.2656L 174,111L 173,111L 173,123L 173.248,124.5039L 173.6777,127.6445Z" style="fill:rgb(131,151,120);"/>
</svg>